<svg xmlns="http://www.w3.org/2000/svg" viewBox="0 0 110.7 122.1"><g id="Layer_2" data-name="Layer 2"><g id="Layer_1-2" data-name="Layer 1"><path d="M0,0,3.78,43Q5.25,59.56,6.71,76.09l.69,7.74c.64,7.2,1.31,14.64,1.92,22a4.87,4.87,0,0,0,3.86,4.58l18.91,5.39L33,116l20.42,5.81a7.12,7.12,0,0,0,2,.27,7.34,7.34,0,0,0,2-.27l19.74-5.62.49-.14q10.06-2.86,20.13-5.73a4.71,4.71,0,0,0,3.65-4.44c.37-4.64.8-9.35,1.2-13.92l1.81-20.22q1-11.43,2-22.85,1.66-18.66,3.3-37.31c.15-1.75.29-3.5.44-5.27L110.7,0ZM96.89,12.7l0,.41q-.36,4.2-.72,8.35l-3,33.64q-1.27,14.49-2.56,29l-.33,3.71c-.33,3.66-.71,7.81-1,11.82-7,1.91-14,3.91-20.73,5.85l-.1,0q-6.35,1.82-12.68,3.61a1.65,1.65,0,0,1-.7,0q-10-2.81-19.91-5.65L21.48,99.57c-.69-8.16-1.42-16.43-2.13-24.44L16.13,38.68q-1.15-13-2.29-26Z"/><path d="M68.9,41.13l-.74,9.59H40l.79,14.78H67.39l-.1,1.44c-.23,3.41-.45,6.63-.72,9.9l-.14.12c-3.47,1.24-7,2.45-10.61,3.62a1.6,1.6,0,0,1-.92,0c-1.59-.52-3.18-1.07-4.76-1.61-1.88-.65-3.83-1.31-5.76-1.94l-.23-.09a1.67,1.67,0,0,1,0-.31c0-1.53-.12-3.06-.21-4.55l-.09-1.8L43.76,69H29l1,18.65.65.34.16.1a2.93,2.93,0,0,0,.53.25l2.39.79c6.74,2.22,13.71,4.53,20.57,6.76a3,3,0,0,0,1,.15,4.2,4.2,0,0,0,1.29-.21l9.82-3.22,12.42-4.07A2.57,2.57,0,0,0,80.78,86c.19-3.51.42-7.08.64-10.53l.73-11.67q.75-12.15,1.51-24.3c.16-2.67.32-5.34.49-8l.3-5.1H26l1.14,14.74Z"/></g></g></svg>