<svg xmlns="http://www.w3.org/2000/svg" viewBox="0 0 330.69 95.77"><defs><style>.cls-1{fill:#222;}</style></defs><g id="Layer_2" data-name="Layer 2"><g id="Layer_1-2" data-name="Layer 1"><path class="cls-1" d="M2.15,74.68V37.88h46V35.73H2.15V2.15H51V0H0V76.83H51.44V74.68ZM92.87,21.52,73.82,46.6,55.2,21.52H52.41L72.53,48.21,50.47,76.83h2.58l20.77-27,20.88,27h2.69L75.22,48.21,95.45,21.52Zm11,74.25V61.34h.21a22.12,22.12,0,0,0,7.64,12.11Q117.4,78,126.23,78a21,21,0,0,0,17.49-8.61,29.33,29.33,0,0,0,4.52-9.25,38.9,38.9,0,0,0,1.56-11.09,39,39,0,0,0-1.62-11.51,27.48,27.48,0,0,0-4.68-9.15,21.56,21.56,0,0,0-7.43-6,22,22,0,0,0-9.84-2.15,23.71,23.71,0,0,0-7.8,1.24A20.73,20.73,0,0,0,112,25a23.57,23.57,0,0,0-4.84,5.32A24.77,24.77,0,0,0,104.06,37h-.21V21.52h-2.16V95.77ZM126.23,76Q116.12,76,110,69t-6.13-20a34.33,34.33,0,0,1,1.5-10.22,26.6,26.6,0,0,1,4.36-8.5,20.83,20.83,0,0,1,7.05-5.81,20.38,20.38,0,0,1,9.47-2.16,19.63,19.63,0,0,1,9.41,2.16,19.13,19.13,0,0,1,6.68,5.86,27.61,27.61,0,0,1,4,8.5,37.3,37.3,0,0,1,1.34,10.17,38.54,38.54,0,0,1-1.23,9.63,27.75,27.75,0,0,1-3.82,8.61A20.8,20.8,0,0,1,136,73.55,18.55,18.55,0,0,1,126.23,76Zm35.4.86V45.52a30.51,30.51,0,0,1,1.29-8.82,21.72,21.72,0,0,1,4-7.59,18.68,18.68,0,0,1,6.83-5.17,20.87,20.87,0,0,1,9.85-1.56V20.23a26.73,26.73,0,0,0-8.67,1.08,20.91,20.91,0,0,0-6.4,3.23,16.37,16.37,0,0,0-4.3,4.78,21.21,21.21,0,0,0-2.37,5.87h-.22V21.52h-2.15V76.84h2.15Zm24.65-27.22h46.27a38.39,38.39,0,0,0-1.13-11,27.48,27.48,0,0,0-4.3-9.36,21.87,21.87,0,0,0-7.65-6.56,23.5,23.5,0,0,0-11.13-2.48,22.67,22.67,0,0,0-16.79,7.59,28.59,28.59,0,0,0-5.38,9.09,34.46,34.46,0,0,0-2,12.27,45.09,45.09,0,0,0,1.4,11.46,26.85,26.85,0,0,0,4.31,9.25A19.31,19.31,0,0,0,197.31,76a24.66,24.66,0,0,0,11,2,24.19,24.19,0,0,0,15.92-5.33q6.47-5.32,7.64-15h-2.15q-1.4,9.15-7.15,13.72T208.12,76a22.3,22.3,0,0,1-10-2,18.11,18.11,0,0,1-6.67-5.6A24.39,24.39,0,0,1,187.62,60a45,45,0,0,1-1.34-10.38Zm44.12-2.15H186.28A33.08,33.08,0,0,1,188.43,37a25.72,25.72,0,0,1,4.79-7.91,20.06,20.06,0,0,1,6.88-5,21,21,0,0,1,8.45-1.72,21.49,21.49,0,0,1,9.47,2,19.54,19.54,0,0,1,6.84,5.44,24,24,0,0,1,4.14,8,32.79,32.79,0,0,1,1.4,9.63Zm46.81-9.58h2.15q0-9.26-5.38-13.45t-14.64-4.2a25.68,25.68,0,0,0-8.71,1.29,17.37,17.37,0,0,0-5.81,3.34,11.89,11.89,0,0,0-3.23,4.52,12.9,12.9,0,0,0-1,4.73,14,14,0,0,0,1.61,7.21,10.62,10.62,0,0,0,5.06,4.2,39.25,39.25,0,0,0,5.38,1.94q3,.85,7,1.83c2.36.57,4.7,1.14,7,1.72a25,25,0,0,1,6.08,2.31A13.31,13.31,0,0,1,277.05,57,9.75,9.75,0,0,1,278.71,63a10.55,10.55,0,0,1-1.66,6,13.51,13.51,0,0,1-4.25,4A18.92,18.92,0,0,1,267,75.27a28.52,28.52,0,0,1-6.19.7q-9.8,0-15-4.35t-5.22-13.73h-2.15q0,10.44,5.65,15.29T260.85,78a32.62,32.62,0,0,0,7.16-.81,19.92,19.92,0,0,0,6.45-2.64,14.53,14.53,0,0,0,4.63-4.73,13.32,13.32,0,0,0,1.78-7.1,12,12,0,0,0-1.56-6.46,13.19,13.19,0,0,0-4.09-4.09,22,22,0,0,0-5.71-2.53c-2.12-.61-4.26-1.2-6.4-1.77-2.63-.69-5.27-1.38-7.91-2a46.88,46.88,0,0,1-6.29-2,10.66,10.66,0,0,1-4.47-3.39,10.3,10.3,0,0,1-1.67-6.3,15.49,15.49,0,0,1,.43-2.69,9.69,9.69,0,0,1,2.05-3.93,13.73,13.73,0,0,1,4.95-3.55,22,22,0,0,1,9.14-1.56,28.82,28.82,0,0,1,7.27.86A15.14,15.14,0,0,1,272.26,26a12.41,12.41,0,0,1,3.66,4.79,17.43,17.43,0,0,1,1.29,7.1Zm49.82,0h2.15q0-9.26-5.38-13.45t-14.63-4.2a25.74,25.74,0,0,0-8.72,1.29,17.47,17.47,0,0,0-5.81,3.34,12,12,0,0,0-3.23,4.52,13.11,13.11,0,0,0-1,4.73,13.88,13.88,0,0,0,1.62,7.21,10.53,10.53,0,0,0,5.06,4.2,38.77,38.77,0,0,0,5.38,1.94q3,.85,7,1.83,3.56.85,7,1.72a25.15,25.15,0,0,1,6.08,2.31,13.27,13.27,0,0,1,4.3,3.71A9.75,9.75,0,0,1,328.54,63a10.56,10.56,0,0,1-1.67,6,13.31,13.31,0,0,1-4.25,4,18.72,18.72,0,0,1-5.76,2.26,28.44,28.44,0,0,1-6.18.7q-9.8,0-15-4.35t-5.22-13.73h-2.15q0,10.44,5.65,15.29T310.68,78a32.53,32.53,0,0,0,7.15-.81,20,20,0,0,0,6.46-2.64,14.63,14.63,0,0,0,4.63-4.73,13.4,13.4,0,0,0,1.77-7.1,12,12,0,0,0-1.56-6.46A13.09,13.09,0,0,0,325,52.19a21.89,21.89,0,0,0-5.7-2.53q-3.19-.91-6.4-1.77c-2.64-.69-5.28-1.38-7.91-2a47.5,47.5,0,0,1-6.3-2,10.79,10.79,0,0,1-4.47-3.39,10.3,10.3,0,0,1-1.66-6.3,14.54,14.54,0,0,1,.43-2.69,9.66,9.66,0,0,1,2-3.93A13.91,13.91,0,0,1,300,23.94a22,22,0,0,1,9.15-1.56,28.8,28.8,0,0,1,7.26.86A15.14,15.14,0,0,1,322.08,26a12.41,12.41,0,0,1,3.66,4.79,17.43,17.43,0,0,1,1.29,7.1Z"/></g></g></svg>