<svg xmlns="http://www.w3.org/2000/svg" viewBox="0 0 196.38 193.43"><g id="Layer_2" data-name="Layer 2"><g id="Layer_1-2" data-name="Layer 1"><path d="M98.19,0A98.18,98.18,0,0,0,74.38,193.43a13.33,13.33,0,0,1-.73-4.66v-16.7H61.37c-6.63,0-12.77-2.94-15.47-8.35-3.19-5.89-3.68-15-11.78-20.62-2.46-2-.49-3.93,2.21-3.69,5.15,1.47,9.32,4.92,13.25,10.06s5.65,6.39,13,6.39a98.14,98.14,0,0,0,13.75-1c2.7-6.87,7.36-13,13-16-32.89-3.93-48.6-20.13-48.6-42.23,0-9.57,4.17-18.66,11-26.51-2.2-7.61-5.15-23.32,1-29.46,14.73,0,23.57,9.58,25.77,12a75.51,75.51,0,0,1,23.81-3.93,74.33,74.33,0,0,1,23.81,3.93c2.2-2.46,11-12,25.77-12,5.89,5.89,3.19,21.85.73,29.46,6.88,7.61,10.81,16.94,10.81,26.51,0,22.1-15.47,38.3-48.11,41.74,9.08,4.66,15.47,17.91,15.47,27.73v22.36c0,.74-.24,1.48-.24,2.21A98.1,98.1,0,0,0,98.19,0Z"/></g></g></svg>