<svg xmlns="http://www.w3.org/2000/svg" viewBox="0 0 108.36 122.38"><g id="Layer_2" data-name="Layer 2"><g id="Layer_1-2" data-name="Layer 1"><path d="M108.35,0H0V2.4C0,2.71,0,3,0,3.19l5.44,61C6.72,78.37,8,93,9.27,107.45a3.76,3.76,0,0,0,3.13,3.67L33.77,117l18.41,5.09a8,8,0,0,0,2,.27,5.72,5.72,0,0,0,1.46-.18L78,116q9.18-2.56,18.36-5.1a3.42,3.42,0,0,0,2.72-3.31q1.08-12.27,2.19-24.54.82-9.12,1.64-18.24,2.23-25.11,4.43-50.21l1-11.28c0-.31,0-.62,0-1Zm-19,72.5q-1.25,13.91-2.46,27.81-6.78,1.84-13.56,3.73-9.26,2.55-18.53,5.08a2.42,2.42,0,0,1-1.19,0l-17.75-4.88-14.23-3.92C21,92,20.22,83.74,19.49,75.46L19.28,73l-2-22.55L13.92,12.79H94.68l-.32,3.68c-.36,4.18-.72,8.32-1.09,12.46Q92,43.17,90.73,57.41Z"/><path d="M25,63.37H70.21a2.53,2.53,0,0,1,.1.59c-.44,5.14-.86,10.28-1.39,15.41,0,.44-.72,1-1.21,1.17-4.16,1.2-8.35,2.33-12.53,3.42a3.66,3.66,0,0,1-1.77,0c-4.13-1.09-8.25-2.25-12.39-3.31A1.54,1.54,0,0,1,39.62,79c-.19-3-.52-6-.8-9H25.56c.57,6.51,1.16,12.9,1.68,19.29.09,1.09.72,1.31,1.57,1.54C36.9,93.07,45,95.33,53.07,97.52a5.12,5.12,0,0,0,2.55,0c8-2.18,16.05-4.46,24.09-6.64A1.76,1.76,0,0,0,81.27,89c.78-9,1.66-18,2.5-27,.35-3.86.68-7.73,1-11.77H37.09c-.42-4.5-.83-8.83-1.25-13.35h48a4,4,0,0,0,1.3,0c.38-.14.91-.52.94-.84.4-4,.72-8.07,1.08-12.21H21.49C22.65,37,23.8,50.12,25,63.37Z"/></g></g></svg>