<svg xmlns="http://www.w3.org/2000/svg" viewBox="0 0 118.38 118.38"><g id="Layer_2" data-name="Layer 2"><g id="Layer_1-2" data-name="Layer 1"><path d="M0,0V118.38H118.38V0ZM105.46,105.46H12.93V12.93h92.53Z"/><path d="M57.62,70.61h-16l-4.12,13.2c-.05.4-.3.59-.75.59h-7.5c-.5,0-.68-.25-.53-.75L43.22,39.48a13.63,13.63,0,0,0,.6-4.12.4.4,0,0,1,.45-.46h10.5a.46.46,0,0,1,.52.38l16.2,48.45c.15.45,0,.67-.37.67h-8.4A.78.78,0,0,1,62,84ZM43.44,63.48H55.89q-.45-1.57-1.87-6.15t-2.63-8.55q-1.2-4-1.8-6.3h-.07Q48.69,46.38,43.44,63.48Z"/><path d="M82.74,41.81a4.82,4.82,0,0,1-3.52-1.32,4.73,4.73,0,0,1-1.35-3.56,4.78,4.78,0,0,1,1.39-3.6A4.88,4.88,0,0,1,82.82,32a4.73,4.73,0,0,1,3.56,1.35,4.92,4.92,0,0,1,1.31,3.6,4.73,4.73,0,0,1-1.35,3.56A4.93,4.93,0,0,1,82.74,41.81ZM78.17,83.73V48.48a.53.53,0,0,1,.6-.6h8a.53.53,0,0,1,.6.6V83.81a.52.52,0,0,1-.6.59H78.84A.59.59,0,0,1,78.17,83.73Z"/></g></g></svg>