<svg xmlns="http://www.w3.org/2000/svg" viewBox="0 0 118.38 118.38"><g id="Layer_2" data-name="Layer 2"><g id="Layer_1-2" data-name="Layer 1"><path d="M0,0V118.38H118.38V0ZM105.46,105.46H12.93V12.93h92.53Z"/><path d="M43.1,36.69V84.92c0,.45-.2.67-.6.67H34.62c-.4,0-.6-.22-.6-.67V36.69a.53.53,0,0,1,.6-.6h8C42.92,36.09,43.1,36.29,43.1,36.69Z"/><path d="M69.8,86.27q-8.4,0-13.42-4.73t-5-14a18.69,18.69,0,0,1,5.4-13.8q5.4-5.4,14.4-5.4a17.76,17.76,0,0,1,3.9.38V32.57a.4.4,0,0,1,.45-.45h8.25c.25,0,.38.15.38.45V77.49a47.33,47.33,0,0,0,.22,5,.61.61,0,0,1-.37.68A32.19,32.19,0,0,1,69.8,86.27Zm5.25-7.43V55.67a8.43,8.43,0,0,0-4-.83,9.47,9.47,0,0,0-7.43,3.23q-2.85,3.23-2.84,9.15,0,6.3,2.81,9.3a9.38,9.38,0,0,0,7.16,3A11.67,11.67,0,0,0,75.05,78.84Z"/></g></g></svg>