<svg xmlns="http://www.w3.org/2000/svg" viewBox="0 0 301.29 301.29"><g id="Layer_2" data-name="Layer 2"><g id="Layer_1-2" data-name="Layer 1"><g id="e3YMdM"><path d="M301.29,301.29H0V0H301.29Zm-122-52.64c.49,1,.86,1.77,1.28,2.53A56.18,56.18,0,0,0,191.06,264a43.06,43.06,0,0,0,14.11,8.74,67.76,67.76,0,0,0,37,3.93,49.41,49.41,0,0,0,18.82-7c10.07-6.44,15.44-15.71,16.58-27.54a48.9,48.9,0,0,0-.62-12.5,34.31,34.31,0,0,0-5.09-13.52,42.43,42.43,0,0,0-10-10.47,82.12,82.12,0,0,0-16.35-9.5c-5.42-2.44-10.89-4.74-16.33-7.13a42.31,42.31,0,0,1-7.58-4.16,13,13,0,0,1-5.8-9.39c-.71-5.79,2-10.86,7.5-12.9a17.44,17.44,0,0,1,13,.13,20.39,20.39,0,0,1,10.27,9.37l.83,1.5,22.17-14.22c-1.66-2.35-3.13-4.63-4.8-6.77-4.55-5.8-10.07-10.36-17.1-12.91a52.72,52.72,0,0,0-14.6-2.85,50.3,50.3,0,0,0-11.63.55,44.62,44.62,0,0,0-5.42,1,54.08,54.08,0,0,0-7.15,2.7c-10.35,4.85-17.15,12.78-20,23.9a40.49,40.49,0,0,0,2.37,26.75,33.81,33.81,0,0,0,10.7,13.85c2.34,1.75,4.78,3.39,7.28,4.91a130.51,130.51,0,0,0,17.05,8.23A137.13,137.13,0,0,1,239.79,225a28,28,0,0,1,5.71,4.08,11.86,11.86,0,0,1,3.72,7.33,12.51,12.51,0,0,1-6.67,13.21,21.16,21.16,0,0,1-2.75,1.23,29.52,29.52,0,0,1-9.73,1.62,27.6,27.6,0,0,1-20.68-8.08,48.53,48.53,0,0,1-6.22-7.7c-.27-.4-.57-.79-.9-1.24Zm-99.95,3.23c.15.38.23.66.36.91a46.44,46.44,0,0,0,11.46,14.77c7.47,6.27,16.28,9.06,25.82,9.92a56.74,56.74,0,0,0,12.15-.27A43.07,43.07,0,0,0,139.32,275c6.55-2.48,12.27-6.14,16.55-11.77A38.15,38.15,0,0,0,162.72,248a73.61,73.61,0,0,0,1.47-15.59c0-6.11-.14-12.22-.15-18.33,0-8.91,0-17.82,0-26.73q0-23.55,0-47.08v-1.64c-.49,0-.81-.12-1.14-.12h-26a8.61,8.61,0,0,0-1.14.14v1.49q-.07,27.93-.13,55.87c0,11.92.1,23.85.09,35.77a55.81,55.81,0,0,1-.69,10c-.95,5.3-4,8.7-9.25,10.08a20.44,20.44,0,0,1-5.23.48,15.73,15.73,0,0,1-12.49-5.93,35.27,35.27,0,0,1-2.26-3c-.92-1.39-1.75-2.85-2.63-4.27-.25-.41-.54-.8-.88-1.28Z"/></g></g></g></svg>