<svg xmlns="http://www.w3.org/2000/svg" viewBox="0 0 411.19 117.16"><defs><style>.cls-1{fill-rule:evenodd;}</style></defs><g id="Layer_2" data-name="Layer 2"><g id="Layer_1-2" data-name="Layer 1"><path class="cls-1" d="M352.87,50.16c-4.45-3.79-10.68-5.79-18.1-5.79-8.83,0-12.17.22-16.84.22-2.6,0-8-.22-9.43-.22h0c-.37.45-1.7,2.74-1.41,3.26,2.08.23,3.56.52,4.68.75,2.22.44,3.34,1.11,3.56,3.71.15,3.11.07,12.83.07,17.8,0,7,.08,13.14-.14,18.26-.23,2.74-.52,3.56-2.08,4.15a11.8,11.8,0,0,1-3.42.67c-.59.07-1.55,2.67-1.18,3.34h.07c7.2.07,15.88.22,20.93.22,9.49,0,16.17-2.22,21.29-6s10.24-10.16,10.24-21.37C361.11,61.29,358.29,54.83,352.87,50.16ZM345.6,88.29c-3.86,3.49-7.86,4.23-11.87,4.23-3.12,0-6.6-.59-8.38-2h0A4.59,4.59,0,0,1,323.71,87c-.14-1.11-.14-10.76-.14-17.66,0-6.68,0-18.1.14-19.59a2.11,2.11,0,0,1,.75-1.18,11,11,0,0,1,4.15-.52c5.49,0,10.24,1,13.95,3.26,6.53,4,9.72,10.83,9.72,19.22C352.28,79.24,349.53,84.73,345.6,88.29Z"/><path class="cls-1" d="M399.47,67.07c-.22-.07-.22-.22,0-.29,4.38-1.86,7.72-5.64,7.72-10.39,0-9.65-8.91-12-15.36-12-5.27,0-9.57.15-15,.15-5.71,0-7.94-.22-8.68-.22h0c-.45.3-1.71,2.82-1.34,3.19,1.71.22,3.79.52,5.05.74,1.63.45,2.45,1.19,2.52,3.49.08,3,0,9.05,0,18,0,6.53,0,15.73-.15,18.33-.3,3-.52,3.63-2.52,4.15a13.9,13.9,0,0,1-3.79.6c-.51.44-1.63,3.11-1,3.33,5.64-.14,15.8.3,19.58.3,5,0,9.87-.59,13.81-2.3,6.45-2.82,10.9-7.34,10.9-14.47S405.7,68.63,399.47,67.07ZM382.55,49.79c0-.45.37-1.26.74-1.34h0a12.25,12.25,0,0,1,3.12-.15c7.49,0,12.54,2.75,12.54,9.94,0,3.2-1.26,6.09-3.93,7.43a16.07,16.07,0,0,1-6.09.88c-2.3,0-5-.07-6.08-.14a.56.56,0,0,1-.45-.45C382.4,60.62,382.48,52.75,382.55,49.79Zm8.91,42.73c-2.08,0-5.12-.14-6.46-.89a5.59,5.59,0,0,1-2.45-4c-.22-3.27-.15-11.65-.15-16.92,0-.22.3-.37.52-.45.74-.14,3.86-.07,4.31-.07,9.79,0,15.21,4.08,15.21,11.43C402.44,89.26,397.32,92.52,391.46,92.52Z"/><path class="cls-1" d="M153.58,61.81a22.22,22.22,0,0,0-11.35,3.34,16,16,0,0,0-7.35,14.09c0,8.68,4.53,18,17.14,18A20.09,20.09,0,0,0,162.18,94c5.13-3.27,7.8-8.61,7.8-15.36C170,68.71,163.22,61.81,153.58,61.81Zm5.71,30.05a7.58,7.58,0,0,1-5.12,1.78c-7,0-11.87-6.83-11.87-16.55,0-5.19,1.48-8.75,4.38-10.54a6.9,6.9,0,0,1,4-1.11h0c7.13,0,11.88,6.46,11.88,16.1C162.56,86.51,161.44,90.08,159.29,91.86Z"/><path class="cls-1" d="M129.39,93.86a15.87,15.87,0,0,1-4.3-1A2.33,2.33,0,0,1,123.75,91c0-1.71.08-4.08.08-6.68.07-2.89.07-6.08.07-8.53,0-8.68-4.08-13.8-11-13.8-2.9,0-7.27,2-11.65,5.34a.54.54,0,0,1-.45.22.56.56,0,0,1-.52-.29c-2.15-3.56-5-5.27-8.6-5.27-2.23,0-6.53,1.33-11.28,5a1,1,0,0,1-.45.15.57.57,0,0,1-.59-.52c0-1,.07-1.93.15-2.74l.07-.82A1.85,1.85,0,0,0,79.23,62a53.67,53.67,0,0,1-11.35,2.9c-1,.15-1.41.67-1.41,1.11s.37.82,1,1A16.87,16.87,0,0,1,72,68.93,2.24,2.24,0,0,1,72.78,71v.15c.07,5.86.07,14.32-.15,18.77-.08,1.85-.67,2.67-2.15,3a29.16,29.16,0,0,1-3.27.67A2.59,2.59,0,0,0,67,94.75a3.14,3.14,0,0,0,.22,1.71h0a17.85,17.85,0,0,1,2.75.15c1.48-.08,3.34-.15,5.93-.15,2.23,0,4.23.07,5.79.15,1,0,1.93.07,2.67.07a6.16,6.16,0,0,0,.22-2.82l-1.33-.22c-.74-.08-1.34-.23-1.71-.3A2.31,2.31,0,0,1,79.45,91c-.07-2.89-.07-9.57-.07-14.91V71.75A2.42,2.42,0,0,1,80.05,70a13.61,13.61,0,0,1,7.57-2.89c3.93,0,6.38,2.15,7.27,6.45.52,2.68.29,13.29.07,17-.07,1.63-.52,2.3-1.78,2.67-.74.14-1.48.29-2.37.44a5.32,5.32,0,0,0-1,.15,2.31,2.31,0,0,0-.3,1.34,4.06,4.06,0,0,0,.22,1.48c.75,0,2-.07,3.34-.07,1.64,0,3.57-.08,4.68-.08,3.78,0,6.38.08,8.9.15a1.55,1.55,0,0,0,.3-.74,4,4,0,0,0,.07-2.08l-2.37-.52c-.37-.07-.67-.15-1.11-.22a2.18,2.18,0,0,1-1.79-2.3c-.07-2.38,0-5.49,0-8.83V77.17a35.1,35.1,0,0,0-.29-6.09V71a1.38,1.38,0,0,1,.29-.75,13.17,13.17,0,0,1,7.57-2.89,7.31,7.31,0,0,1,7.57,6.46c.45,2.89.15,14.91.15,16.32-.07,1.93-.45,2.6-1.93,3a22.92,22.92,0,0,1-2.82.67,7.22,7.22,0,0,0,0,2.82c2.3-.15,4.68-.22,9.27-.22q2.83,0,5.64.15c.75.07,1.41.07,1.86.07a5.89,5.89,0,0,0,.44-2.82Z"/><path class="cls-1" d="M284.46,61.81a22.25,22.25,0,0,0-11.35,3.34,16,16,0,0,0-7.34,14.09c0,8.68,4.52,18,17.13,18A20.61,20.61,0,0,0,293.07,94c5.12-3.27,7.79-8.61,7.79-15.36C300.86,68.71,294.11,61.81,284.46,61.81Zm5.72,30.05a7.6,7.6,0,0,1-5.12,1.78c-7,0-11.87-6.83-11.87-16.55,0-5.19,1.48-8.75,4.37-10.54a6.91,6.91,0,0,1,4-1.11h0c7.05,0,11.87,6.46,11.87,16.1C293.44,86.51,292.33,90.08,290.18,91.86Z"/><path class="cls-1" d="M253.74,68.56a16.72,16.72,0,0,0,1.93.3h.38a4.23,4.23,0,0,0,3.26-1.41,5.58,5.58,0,0,0,1-3.42,4.15,4.15,0,0,0-.29-1.48c-1,1-2.3,1.93-5.2,1.93a13.72,13.72,0,0,1-4.82-.74A22.73,22.73,0,0,0,241.8,62h-.22a21.84,21.84,0,0,0-10.69,3.64,11.28,11.28,0,0,0-4.75,9.35c0,5.79,2.6,9.65,7.79,11.35.15.08.3.22.3.37a.55.55,0,0,1-.15.45,29.4,29.4,0,0,1-3.41,2.22c-.82.52-1.56,1-2.08,1.34-.67.44-.52.89-.44,1.33v.15c.29,1.19,1.33,3.34,4.82,4.68a.48.48,0,0,1,.3.37c0,.15-.08.22-.23.3a39.22,39.22,0,0,0-6.82,5.49,5.66,5.66,0,0,0-1.49,3.71,9.77,9.77,0,0,0,3.94,7.34c2.82,2.15,6.08,3.12,10.61,3.12h0a23.93,23.93,0,0,0,9.87-2.15c6.52-3.19,10.46-8.31,10.46-13.8A8.32,8.32,0,0,0,254,93.27c-2.45-.82-7.71-1.19-11.94-1.49-.75-.07-1.41-.07-2.08-.15-3.19-.22-3.86-1.55-3.86-2.67s1.48-2,2.08-2.15h.07c.08,0,.6-.07,1-.07a8.6,8.6,0,0,1,1-.08A17,17,0,0,0,249,83.32c2.59-2,5-4.67,5-10.75a26.69,26.69,0,0,0-.44-3.19l-.08-.15c-.07-.23-.15-.37-.07-.52Zm-15,29.31h0c4.52,0,8.31.44,10.39,1.33,2.89,1,4.3,2.9,4.3,5.72,0,4-3.34,8.08-10.91,8.08-3.78,0-6.75-.89-8.9-2.74a6.57,6.57,0,0,1-2.6-5.34c0-2.31,1.41-4.23,4.53-6.24A6.36,6.36,0,0,1,238.76,97.87ZM245,81.77a5.79,5.79,0,0,1-3.86,1.48c-6.08,0-8.23-5.57-8.23-10.39s2.44-7.79,6.38-7.79h0c5,0,8.08,3.71,8.08,9.87C247.36,77.76,246.4,80.43,245,81.77Z"/><path class="cls-1" d="M218.72,93.41a14.66,14.66,0,0,1-4.82-1.26,2.28,2.28,0,0,1-.59-1.18c-.15-2.6-.15-10-.15-15,0-4-.67-7.5-2.38-9.94a10.12,10.12,0,0,0-8.6-4.46c-3.27,0-7.64,2.23-11.28,5.35-.07.07-.67.59-.59-.23s.14-2.44.22-3.56a2,2,0,0,0-.52-1.56c-2.37,1.19-9,2.75-11.5,3-1.78.37-2.23,2.08-.37,2.67h.07a16.71,16.71,0,0,1,4.38,1.93,2.32,2.32,0,0,1,.67,2.08c.07,5.56.07,14.1-.15,18.77-.07,1.86-.59,2.52-1.93,2.82l.15-.07a30.6,30.6,0,0,1-3.12.59,4.39,4.39,0,0,0,0,3.34c.82,0,5.12-.22,8.68-.22,4.9,0,7.42.22,8.68.22a4.87,4.87,0,0,0,.38-3.34,13.54,13.54,0,0,1-3.42-.52c-1.33-.3-1.7-1-1.78-2.52-.15-3.93-.15-12.24-.15-17.88a3.61,3.61,0,0,1,.89-2.75,11.27,11.27,0,0,1,6.9-2.52,7.62,7.62,0,0,1,5.12,1.71,7.28,7.28,0,0,1,2.38,4.67c.37,3.19.22,9.5.22,15,0,3-.22,3.71-1.33,4.08a14.42,14.42,0,0,1-3.42.67c-.52.52-.37,2.82,0,3.34,2.15,0,4.68-.23,8.39-.23,4.6,0,7.56.23,8.75.23a5.18,5.18,0,0,0,.22-3.2Z"/><path class="cls-1" d="M28.48,6.83A38.17,38.17,0,0,1,25.14.3V.48A1.7,1.7,0,0,0,25,0c-.14,2.37-.22,3.27-2.44,5.64C19.13,8.31,1.47,23.08.06,53.13c-1.38,28,20.26,44.74,23.2,46.88,2.08,4.88,1.88,13.21,1.88,13.21l3,1s-.59-8.16.3-12a7.26,7.26,0,0,1,1.57-3.12,37.85,37.85,0,0,0,3.7-3L33.9,96V96c7.21-6.64,21-23.32,16.33-50.63C44.21,18.85,30,10.17,28.48,6.83Z"/></g></g></svg>