<svg xmlns="http://www.w3.org/2000/svg" viewBox="0 0 317.26 194.3"><g id="Layer_2" data-name="Layer 2"><g id="Layer_1-2" data-name="Layer 1"><path d="M188.47,133.42l-28.64-16.55a6.25,6.25,0,0,0-6,0l-28.68,16.55a6.06,6.06,0,0,0-3,5.23v33.07a6.06,6.06,0,0,0,3,5.23l7.51,4.33c3.64,1.78,5,1.78,6.61,1.78,5.39,0,8.48-3.25,8.48-8.94V141.48a.82.82,0,0,0-.83-.84h-3.62a.84.84,0,0,0-.83.84v32.63c0,2.5-2.62,5-6.88,2.89l-7.84-4.54a.87.87,0,0,1-.44-.76v-33a.91.91,0,0,1,.46-.78l28.64-16.52a.87.87,0,0,1,.88,0l28.64,16.52a1,1,0,0,1,.44.8v33.05a.93.93,0,0,1-.44.78L157.25,189a.92.92,0,0,1-.88,0L149,184.67a.72.72,0,0,0-.71,0,19.57,19.57,0,0,1-4.33,2c-.46.16-1.16.44.27,1.23l9.56,5.67a6.12,6.12,0,0,0,3,.8,6,6,0,0,0,3-.81l28.64-16.56a6.08,6.08,0,0,0,3-5.23v-33A6.06,6.06,0,0,0,188.47,133.42Z"/><path d="M202.5,137a1.41,1.41,0,0,0,1.16-1.52c0-1.64-1.45-1.64-2.17-1.64h-2.12V140h1.2v-2.47h1.08c.44,0,.56.17.65.53,0,.07.2,1.66.23,1.94h1.31a6.44,6.44,0,0,1-.32-1.64C203.41,137.57,203.34,137,202.5,137Zm-1-.46h-.95v-1.73h1c.31,0,.9,0,.9.85A.83.83,0,0,1,201.47,136.49Z"/><path d="M201.4,131.35a5.53,5.53,0,1,0,5.53,5.53A5.53,5.53,0,0,0,201.4,131.35Zm0,10.16a4.63,4.63,0,1,1,4.65-4.65A4.68,4.68,0,0,1,201.4,141.51Z"/><path d="M165.64,166.49c-7.58,0-9.24-1.91-9.8-5.67a.82.82,0,0,0-.81-.71h-3.7a.83.83,0,0,0-.83.83c0,4.83,2.62,10.59,15.16,10.59l-.07,0c9.08,0,14.29-3.58,14.29-9.82s-4.17-7.85-13-9-9.81-1.79-9.81-3.87c0-1.71.78-4,7.37-4,5.9,0,8.06,1.27,9,5.23a.79.79,0,0,0,.79.65H178a.83.83,0,0,0,.76-.9c-.57-6.85-5.12-10-14.29-10-8.16,0-13,3.44-13,9.22,0,6.27,4.86,8,12.7,8.78,9.38.92,10.11,2.3,10.11,4.13C174.25,165.13,171.69,166.49,165.64,166.49Z"/><path d="M66.25,61.76,35.88,44.29a3.52,3.52,0,0,0-1.68-.48h-.32a3.61,3.61,0,0,0-1.67.48L1.84,61.76A3.72,3.72,0,0,0,0,65L.07,112A1.81,1.81,0,0,0,1,113.63a1.75,1.75,0,0,0,1.82,0L20.86,103.3a3.68,3.68,0,0,0,1.84-3.18v-22a3.64,3.64,0,0,1,1.84-3.18l7.68-4.44A3.73,3.73,0,0,1,34.06,70a3.53,3.53,0,0,1,1.82.49l7.69,4.44a3.67,3.67,0,0,1,1.83,3.18v22a3.71,3.71,0,0,0,1.84,3.18L65.3,113.6a1.82,1.82,0,0,0,1.83,0A1.84,1.84,0,0,0,68,112l.06-47.07A3.64,3.64,0,0,0,66.25,61.76Z"/><path d="M315.44,62.24,285.25,44.71a3.72,3.72,0,0,0-3.68,0L251.19,62.26a3.64,3.64,0,0,0-1.84,3.18v35.07a3.66,3.66,0,0,0,1.85,3.19l30.2,17.21a3.64,3.64,0,0,0,3.6,0l18.27-10.14a1.85,1.85,0,0,0,0-3.2L272.72,90.05a1.85,1.85,0,0,1-.92-1.59v-11a1.83,1.83,0,0,1,.92-1.59l9.51-5.49a1.77,1.77,0,0,1,1.83,0l9.53,5.49a1.84,1.84,0,0,1,.91,1.59v8.66a1.84,1.84,0,0,0,2.76,1.59l18.18-10.62a3.67,3.67,0,0,0,1.82-3.18V65.42A3.69,3.69,0,0,0,315.44,62.24Z"/><path d="M232.33,10.34,214.24.23a1.83,1.83,0,0,0-2.72,1.61V48.46a1.28,1.28,0,0,1-1.27,1.29,1.08,1.08,0,0,1-.63-.18L202,45.19a3.7,3.7,0,0,0-3.67,0L167.94,62.73a3.68,3.68,0,0,0-1.84,3.17V101a3.71,3.71,0,0,0,1.84,3.18l30.39,17.55a3.7,3.7,0,0,0,3.67,0l30.39-17.56a3.71,3.71,0,0,0,1.84-3.18V13.53A3.64,3.64,0,0,0,232.33,10.34ZM211,90.24l-10.45,6a.92.92,0,0,1-.91,0l-10.44-6a.89.89,0,0,1-.46-.79v-12a.9.9,0,0,1,.46-.8l10.42-6a.94.94,0,0,1,.92,0l10.44,6a.92.92,0,0,1,.46.8l0,12A.91.91,0,0,1,211,90.24Z"/><path d="M283.66,75.45a.74.74,0,0,0-.71,0l-5.83,3.36a.71.71,0,0,0-.35.62v6.73a.71.71,0,0,0,.35.62L283,90.14a.75.75,0,0,0,.71,0l5.83-3.36a.76.76,0,0,0,.35-.62V79.43a.72.72,0,0,0-.35-.62Z"/><polygon points="120.42 114.89 128.39 118.8 135.92 103.44 155.18 89.21 147.79 79.22 152.28 70.07 134.65 61.44 122.28 44.69 113.59 51.11 105.69 47.24 98.24 62.46 78.78 76.83 86.24 86.93 81.81 95.97 99.23 104.51 111.68 121.35 120.42 114.89"/></g></g></svg>