<svg xmlns="http://www.w3.org/2000/svg" viewBox="0 0 118.38 118.38"><g id="Layer_2" data-name="Layer 2"><g id="Layer_1-2" data-name="Layer 1"><path d="M0,0V118.38H118.38V0ZM105.46,105.46H12.93V12.93h92.53Z"/><path d="M27.62,83.15V34.71c0-.35.15-.53.45-.53q4.8-.15,13.5-.15,9.9,0,14.59,4.54a15.16,15.16,0,0,1,4.68,11.36q0,8.25-5.74,12.41T40.59,66.51c-.7,0-1.51,0-2.43,0l-1.47,0V83.15c0,.36-.2.53-.6.53h-8A.46.46,0,0,1,27.62,83.15ZM36.69,41V59.46a38.91,38.91,0,0,0,4.35.15,12.67,12.67,0,0,0,7.73-2.22q3-2.2,3-7.31a8.74,8.74,0,0,0-2.67-6.79q-2.66-2.43-7.53-2.43A44,44,0,0,0,36.69,41Z"/><path d="M88,55.56a14.46,14.46,0,0,0-8.17-2.48,5.9,5.9,0,0,0-3.75,1,2.91,2.91,0,0,0-1.2,2.32,3.44,3.44,0,0,0,1,2.48,15.19,15.19,0,0,0,4.39,2.54q5.85,2.49,8.17,5.14A10.68,10.68,0,0,1,87,81.36q-3.8,3-10,3a20.86,20.86,0,0,1-10.2-2.18.93.93,0,0,1-.45-.82V74.61a.47.47,0,0,1,.18-.42.26.26,0,0,1,.34,0,16.33,16.33,0,0,0,9.9,3.45,6.47,6.47,0,0,0,3.83-1,3,3,0,0,0,1.35-2.48,3.63,3.63,0,0,0-1.09-2.66A16.22,16.22,0,0,0,76.44,69q-5.55-2.4-7.8-5.06a10.6,10.6,0,0,1,1.2-14.36q3.45-3.08,9.6-3.08,5.78,0,8.85,1.65c.25.1.38.4.38.9v6C88.67,55.63,88.44,55.81,88,55.56Z"/></g></g></svg>