<svg xmlns="http://www.w3.org/2000/svg" viewBox="0 0 510.8 511.11"><g id="Layer_2" data-name="Layer 2"><g id="Layer_1-2" data-name="Layer 1"><g id="HhFqX7.tif"><path d="M269.54,511.11h-28c-1.61-.33-3.2-.78-4.82-1-7.09-.8-14.25-1.17-21.28-2.34-53.32-8.84-99.68-31.75-138.31-69.63q-61.61-60.4-74.27-146C1.8,284.68,1,277.11,0,269.56V241.61a28.67,28.67,0,0,0,.92-4.34c2-30.84,9.83-60.18,22.53-88.32C70,45.77,184.16-15.32,295.77,3.33c53.36,8.92,100.06,31.58,138.3,69.91,61.57,61.73,86.08,136.48,73.55,222.59-7.83,53.89-32,100.35-70.37,139.07q-60.19,60.77-145.06,73.3C284.66,509.3,277.09,510.15,269.54,511.11ZM415.41,149.2a160,160,0,0,0-36.77-26.4c-25.77-13.51-52.75-19.28-81.86-13.52C259,116.75,229.56,137,206.47,167c-22.5,29.2-37.69,62.53-51.5,96.38-14.14,34.66-22,71-24.94,108.28-.78,10-.12,20.16-.12,30.5H286.19c-2.43-6.63-4.87-12.94-7-19.34-14.31-42.05-23.48-85-18.41-129.64,5.25-46.31,28.55-80.75,70.72-101.55,15.73-7.76,32.34-11,49.83-6.72,10.18,2.49,19,7.52,27.16,14.82ZM129.94,326c-7.64-.58-14.85-1.22-22.07-1.64-8.43-.49-8.54-.42-9.67,7.73-1,6.95-1.65,13.95-2.47,21.09l28.89,3.43C126.44,346.18,128.13,336.43,129.94,326Zm17.51-66.55c2.87-8,5.46-15.31,8.23-23.07l-27.15-10.62-8.83,24.84ZM311.76,375.58c-3.8-7.8-7.15-14.78-10.63-21.69a3.15,3.15,0,0,0-2.32-1.43c-7.91-.11-15.82-.07-24.26-.07,1.89,6.86,3.53,13.09,5.38,19.25a3.46,3.46,0,0,0,2.37,2C291.82,374.4,301.35,374.94,311.76,375.58ZM201.54,162.1l-20.62-13.62-16.64,18.34L185.53,181Zm66,117.64c-.41,6.6-.82,12.05-1,17.51-.05,1.18.27,3.13,1,3.47,7.55,3.49,15.22,6.72,23.53,10.32-.33-6.36-.51-11.65-.94-16.92a4.65,4.65,0,0,0-1.67-3.3C281.8,287.14,275.05,283.69,267.53,279.74ZM241.2,125.33c6.6-3.83,12.9-7.49,19.54-11.33-4.51-5.08-8.29-9.48-12.27-13.69-.81-.86-2.77-1.72-3.6-1.32-5.92,2.81-11.68,6-17.9,9.2ZM288.14,259c1.57-6.32,3.09-11.84,4.23-17.45a4.58,4.58,0,0,0-1.59-3.66c-4.78-3.83-9.75-7.42-15.06-11.4-2.35,4.72-4.64,9.11-6.69,13.61a3.22,3.22,0,0,0,.5,3C275.47,248.27,281.55,253.36,288.14,259Zm35.31-153.06c-.82-5.44-1.24-9.23-2-12.93-.24-1.16-1.42-3-2.29-3-7.67-.59-15.37-.86-23.46-1.25,1,5.3,1.8,9.86,2.92,14.33.28,1.11,1.69,2.72,2.63,2.75C308.42,106,315.64,105.91,323.45,105.91ZM303.89,207.85c2.25-3.9,4.28-7.28,6.13-10.76a3.31,3.31,0,0,0,.16-2.74c-3.5-5.53-7.16-11-10.94-16.68L286.77,189Zm19.21-48.16,7.6,13.93c11.86-7.59,12.85-9.75,8.3-17.94Zm55.13-52.06-1.67.5c.39,3.39-.47,8.21,1.43,9.86,4.19,3.66,9.77,5.72,14.91,8.5,1.39-2.06,2.4-3.54,3.69-5.44Zm12.15,55.25c-1-3.13-1.16-6.78-2.56-7.34-4.3-1.74-9.08-2.31-13.68-3.34-1.55,8.6-1.25,9,6.21,9.63C383.14,162.07,385.92,162.41,390.38,162.88Z"/></g></g></g></svg>