<svg xmlns="http://www.w3.org/2000/svg" viewBox="0 0 294.38 262.17"><g id="Layer_2" data-name="Layer 2"><g id="Layer_1-2" data-name="Layer 1"><path d="M292.1,120.82c-3.37-7.55-9-13.2-15.45-18.11-12.64-9.6-27-15.62-42-20.38-2.1-.66-2-1.53-1.66-3.14a151.36,151.36,0,0,0,3.88-33.51C237,36.06,236,26.29,232,17.09,226.1,3.75,215.57-1.58,201.39.4c-8.19,1.14-15.67,4.34-22.86,8.27a148.48,148.48,0,0,0-29.91,22.09c-1.11,1-1.75,1.24-3,.09a154.46,154.46,0,0,0-24-18.52c-9.7-6-19.81-10.92-31.39-12C79.58-.6,70.27,3.18,64.48,12.61c-5.33,8.68-6.86,18.39-7.3,28.3-.6,13.14,1.21,26.08,4,38.88.38,1.73-.2,2.12-1.61,2.56A156.47,156.47,0,0,0,29.15,95.22c-8.52,4.83-16.45,10.42-22.51,18.27-8.74,11.33-8.84,23.22-.37,34.63a61.06,61.06,0,0,0,15,13.87c11.79,8,24.8,13.48,38.33,17.73,1.86.59,2.23,1.31,1.81,3.15a147.18,147.18,0,0,0-3.88,38.9,68.15,68.15,0,0,0,4.34,22.12c4.76,12.18,14.62,18.9,27.1,18.24,8.27-.45,16-3.16,23.3-6.81,12.46-6.21,23.4-14.59,33.58-24,1.15-1.06,1.8-1.19,3-.07a158.11,158.11,0,0,0,16.66,13.57c11.46,8,23.37,15,37.6,16.77,11,1.35,20.17-1.9,26.45-11.48,5.16-7.88,6.94-16.84,7.52-26a143.58,143.58,0,0,0-3.77-41.26c-.41-1.82-.19-2.56,1.73-3.15,12.73-4,24.95-9.1,36.16-16.4,7.39-4.82,14.1-10.4,18.79-18C294.8,137.49,295.89,129.33,292.1,120.82ZM157.93,40.2A156.34,156.34,0,0,1,180.6,22.84c6.82-4.17,13.88-7.92,21.89-9.08,8.78-1.27,13.59.41,17.28,8.66a38.33,38.33,0,0,1,2,6c1.51,5.77,1.67,11.68,1.93,16.89A161.11,161.11,0,0,1,220,76.39c-.26,1.24-.61,1.58-1.95,1.25a283.8,283.8,0,0,0-35.47-6.06,2.31,2.31,0,0,1-1.76-1.06,268.11,268.11,0,0,0-23-27.73C156.8,41.79,156.77,41.24,157.93,40.2ZM78.42,169.78c2.21-7.41,4.73-14.72,7.75-22.35,5,9.84,10.47,19,16.51,28.42-3.51-.6-6.57-1.07-9.61-1.66-4.51-.88-9-1.85-13.49-2.76C78.6,171.24,78.05,171,78.42,169.78ZM78.2,92.09c-.22-.7-.13-1.06.68-1.25,7.4-1.79,14.88-3.19,22.41-4.3a4.51,4.51,0,0,1,1,.17C96.49,95.82,91.26,105,86.17,114.88,83,107.08,80.47,99.63,78.2,92.09ZM93.69,132.4a2.31,2.31,0,0,1,0-2.21,322.68,322.68,0,0,1,25.53-44.6,2.67,2.67,0,0,1,2.21-1.4c6.56-.36,13.11-.77,19.68-.91,9-.19,18,.14,27,.55,1.64.07,3.28.31,4.91.34a2.57,2.57,0,0,1,2.14,1.5,311.16,311.16,0,0,1,20.75,34.65c1.57,3.1,3.07,6.24,4.66,9.34a2.57,2.57,0,0,1,.06,2.56,326.07,326.07,0,0,1-25.44,44.42,3.09,3.09,0,0,1-2.62,1.44c-8.46.49-16.92,1.11-25.41.85-8.55.25-17.08-.37-25.61-.83a2.45,2.45,0,0,1-2.07-1.23A324.69,324.69,0,0,1,93.69,132.4Zm114.42,14.77c2.86,7,5.26,13.81,7.34,20.7,1,3.19.91,3.19-2.33,3.94-6.77,1.56-13.61,2.76-20.46,3.9a4.33,4.33,0,0,1-.85-.08A327.9,327.9,0,0,0,208.11,147.17Zm7.81-55q-3.31,11.13-7.55,21.94c0,.11-.15.18-.38.44a302.6,302.6,0,0,0-16.37-28.2c3.17.51,5.95.94,8.73,1.43,4.9.86,9.79,1.82,14.62,3C215.78,91,216.24,91.05,215.92,92.12ZM146.2,51.77c.45-.47.78-.81,1.41-.15a188.74,188.74,0,0,1,15.5,18s0,.12-.15.46c-10.55-.62-21.19-.29-32.33-.08A233.26,233.26,0,0,1,146.2,51.77ZM73.67,24.14A24.53,24.53,0,0,1,76,19.37c3.22-5.13,8.14-6.32,13.72-5.66,8.81,1,16.57,4.92,24,9.45a155.38,155.38,0,0,1,22.41,17.07c1,.94,1.21,1.48.14,2.62a269.78,269.78,0,0,0-22.6,27.33,3,3,0,0,1-2.37,1.44,267.08,267.08,0,0,0-35.07,6.1c-1.23.32-1.8,0-2.06-1.24a171.78,171.78,0,0,1-3.32-21.77c-.22-2.89-.34-5.77-.36-8.66C70.5,38.59,71.09,31.22,73.67,24.14ZM65.57,166c-.29,1-.46,1.64-1.82,1.19-13.54-4.47-26.64-9.82-38.11-18.52A40.56,40.56,0,0,1,16,138.81a15.11,15.11,0,0,1-2.76-7.9c.21-3.78,2-6.88,4.29-9.75,4.6-5.74,10.55-9.84,16.8-13.52A143.81,143.81,0,0,1,63.24,95.17c1.36-.44,1.82-.16,2.2,1.15A276.1,276.1,0,0,0,77.8,129.74a3.3,3.3,0,0,1,0,2.94A281.15,281.15,0,0,0,65.57,166Zm71.35,55.45c-11.51,10.42-23.63,19.92-38.46,25.27a37.9,37.9,0,0,1-6.08,1.63,16.27,16.27,0,0,1-4.64.46c-6.27.18-10.34-2.93-12.87-8.38A46.93,46.93,0,0,1,71,223.79c-.95-12.81.68-25.41,3.3-37.92.32-1.52.87-1.71,2.22-1.38a258,258,0,0,0,34.7,5.91,3.45,3.45,0,0,1,2.58,1.55,284,284,0,0,0,23,27.73C137.41,220.29,137.72,220.68,136.92,221.4Zm11.26-11.21c-.47.52-.87,1.05-1.57.3-5.46-5.83-10.76-11.8-15.92-18.53,11.15.51,21.88.6,33,0-3,4.09-6.06,7.68-9.14,11.24C152.5,205.59,150.3,207.85,148.18,210.19Zm72,29c-2,4.93-5.12,8.77-11,9.21a30.46,30.46,0,0,1-10.9-1.3c-8.68-2.57-16.38-7.07-23.75-12.18a166.62,166.62,0,0,1-16.44-13.2c-1-.86-1.21-1.39-.17-2.46a216.63,216.63,0,0,0,21.5-25.92c1.78-2.55,4-3,6.6-3.31a248.38,248.38,0,0,0,32.15-5.68c1.36-.33,1.72,0,2,1.23,2.1,10.1,3.73,20.26,3.63,30C223.84,224.05,223.24,231.82,220.17,239.18Zm55.24-96.68c-5.24,5.76-11.66,10-18.45,13.66a157.91,157.91,0,0,1-26.15,10.9c-1.16.38-1.58.11-1.91-1a271.59,271.59,0,0,0-12.38-33.6,3.15,3.15,0,0,1-.14-2.78,258.31,258.31,0,0,0,12.23-33.23c.45-1.55,1-1.73,2.46-1.26,11.3,3.64,22.21,8.11,32.24,14.53,5.62,3.59,10.86,7.63,14.75,13.17a15.47,15.47,0,0,1,2.95,9.18C280.73,135.81,278.32,139.3,275.41,142.5Z"/><path d="M146.92,158.42a27.4,27.4,0,1,0-27.24-27.27A27.14,27.14,0,0,0,146.92,158.42Z"/></g></g></svg>