<svg xmlns="http://www.w3.org/2000/svg" viewBox="0 0 122.41 122.1"><g id="Layer_2" data-name="Layer 2"><g id="Layer_1-2" data-name="Layer 1"><path d="M122.24,23A26.14,26.14,0,0,0,119,12.4,23.5,23.5,0,0,0,106.6,2.14,23.54,23.54,0,0,0,99.35.42c-1.06,0-2.11-.06-3.14-.06H94.94L91.31.3Q79.73.15,68.13,0a5.64,5.64,0,0,0-1.89.32c-.68.26-1.36.54-2,.81s-1.57.64-2.36.93L53,5.32Q48,7.15,43,9l-.11,0a7.78,7.78,0,0,0-2.62,1.39c-1.57,1.38-3.1,2.82-4.58,4.22l-1.62,1.52-3.55,3.32c-3.7,3.46-7.41,6.91-11.1,10.39l-.71.64a12.42,12.42,0,0,0-2.6,2.86C10.82,42.28,5.51,51.44.82,59.53a6.08,6.08,0,0,0-.79,3c0,4.07,0,8.15,0,12.22v5.83H.14v3.12c0,4.16,0,8.47,0,12.71a30.3,30.3,0,0,0,1.66,9.21c2.44,7.25,7,12.15,13.67,14.57a32.74,32.74,0,0,0,11.34,1.93c1,0,2.05,0,3.11-.12,4.47-.33,9-.63,13.42-.93l9.33-.64,12.91-.87,7.23-.48,10.29-.69,7.47-.53,8.06-.56q6.45-.44,12.9-.83a4.82,4.82,0,0,0,4.61-4.55c.16-2.93.35-5.83.55-8.62.16-2.28.34-4.56.52-6.85l2.4-31.5c.16-2.2.32-4.39.49-6.59l.48-6.15.48-6.32.33-4.36c.18-2.52.36-5,.57-7.54l0-.44A56.49,56.49,0,0,0,122.24,23ZM34.32,80.48l-7,23.25L18.88,84ZM75.2,90a109.61,109.61,0,0,1-18.78,13.29,74.47,74.47,0,0,1-21.56,8l9.39-31.2ZM11.85,91.38l8.76,20.49a14.3,14.3,0,0,1-5.77-2.71,13.18,13.18,0,0,1-4.53-7.82c-.29-1.35-.45-2.73-.62-4.2-.06-.49-.11-1-.17-1.46C10.29,94.25,11.06,92.82,11.85,91.38Zm96.25-45A97.57,97.57,0,0,1,97,65.85,158,158,0,0,1,87,78.16L79.42,48.25Zm-58,25.69L70.91,52.69,78,81.11ZM80,38.93l5-16.08L102.77,37.4ZM73.86,27.21q-2.14,6.85-4.32,13.7a1.46,1.46,0,0,1-.34.56q-8.46,7.92-17,15.82L45.58,63.5c-2.29,2.14-4.59,4.28-6.84,6.4l-21,4.72-2.51.56c-.9-2.16-1.79-4.32-2.69-6.47l-1.36-3.28L9.94,62.52,11.44,60C15,53.8,18.76,47.43,22.35,41.11a20.06,20.06,0,0,1,4-5c4.2-3.83,8.42-7.76,12.51-11.57,1.57-1.46,3.14-2.93,4.71-4.38l.13-.12a5.39,5.39,0,0,0,.71-.72c1.05-1.33,2.66-1.9,4.54-2.56l.92-.33,4.81-1.77Q61.15,12.32,67.6,10l5.34,3.75,4.23,3Q75.51,21.94,73.86,27.21Zm26.51-17.13c4.16.91,7,2.4,9.06,4.78a14.12,14.12,0,0,1,3.3,7.7A32.14,32.14,0,0,1,112.22,33L90.7,15.4l2-1.08Zm-.29,97.82-36.67,2.45A140.31,140.31,0,0,0,84.63,94.2Zm10.26-44.75-2.93,38.72L91.4,87.6A159.67,159.67,0,0,0,110.34,63.15Z"/></g></g></svg>