<svg xmlns="http://www.w3.org/2000/svg" viewBox="0 0 253.9 190.34"><g id="Layer_2" data-name="Layer 2"><g id="Layer_1-2" data-name="Layer 1"><path d="M218.57,109.3a52.41,52.41,0,0,0-23,5.35c-2.37-4.71-4.76-8.83-5.16-11.9-.44-3.58-1-5.75-.44-10s3-10.32,3-10.81-.54-2.64-5.65-2.69-9.53,1-10,2.33a57.51,57.51,0,0,0-2.13,7.59c-.89,4.66-10.22,21.17-15.52,29.85-1.74-3.37-3.22-6.35-3.53-8.73-.44-3.57-1-5.75-.44-10s3-10.32,3-10.81-.54-2.63-5.65-2.68-9.53,1-10,2.33-1,4.51-2.13,7.58-13.44,30.66-16.67,37.85c-1.63,3.67-3.08,6.59-4.11,8.58s-.05.15-.15.35c-.9,1.68-1.4,2.63-1.4,2.63v0c-.69,1.24-1.44,2.43-1.78,2.43s-.74-3.33.1-7.89c1.84-9.56,6.3-24.5,6.24-25,0-.25.85-2.88-2.87-4.22s-4.91.9-5.21.9-.55.79-.55.79,4-16.81-7.69-16.81c-7.34,0-17.46,8-22.46,15.27-3.17,1.74-9.93,5.41-17.07,9.33-2.73,1.48-5.55,3.08-8.24,4.51l-.54-.6C44.34,109.69,18.1,99,19.2,78.64c.39-7.39,3-26.87,50.39-50.49,38.83-19.33,69.93-14,75.33-2.23,7.69,16.86-16.62,48.2-57,52.71-15.38,1.74-23.46-4.21-25.49-6.45s-2.43-2.42-3.22-2c-1.29.69-.5,2.78,0,4,1.19,3.12,6.14,8.67,14.58,11.45,7.39,2.43,25.45,3.77,47.26-4.66,24.45-9.47,43.55-35.76,37.94-57.73C153.3.92,116.21-6.42,81.15,6,60.26,13.48,37.64,25.09,21.38,40.31,2,58.36-1,74.14.26,80.69,4.77,104.05,37,119.27,49.85,130.53c-.64.34-1.24.69-1.79,1-6.44,3.17-31,16-37.14,29.61C4,176.51,12,187.57,17.37,189.05c16.57,4.61,33.53-3.67,42.7-17.31s8-31.34,3.82-39.43l-.15-.29,5.06-3c3.27-1.93,6.5-3.71,9.32-5.26a61.55,61.55,0,0,0-3.32,16.86c-.69,8.73,2.87,20,7.59,24.5a8.4,8.4,0,0,0,6.1,2c5.45,0,7.93-4.51,10.66-9.92,3.38-6.59,6.35-14.23,6.35-14.23s-3.72,20.68,6.45,20.68c3.72,0,7.44-4.82,9.12-7.29v0l.3-.5c.2-.31.4-.62.6-.95v-.1c1.48-2.58,4.81-8.48,9.77-18.25,6.4-12.59,12.54-28.37,12.54-28.37a92,92,0,0,0,2.43,10.22c1.09,3.77,3.47,7.88,5.3,11.9-1.48,2.09-2.38,3.27-2.38,3.27l.06.06c-1.19,1.58-2.53,3.27-3.93,4.95-5,6.06-11.11,12.94-11.9,14.93-.94,2.33-.74,4.07,1.09,5.46,1.34,1,3.71,1.19,6.24,1a27.86,27.86,0,0,0,9.33-2.13,32.37,32.37,0,0,0,8-4.22,17.86,17.86,0,0,0,7.69-15.82,32,32,0,0,0-2.92-11.16c.44-.64.89-1.29,1.34-2a209.85,209.85,0,0,0,13.88-24.06A92,92,0,0,0,181,110.87c.94,3.22,2.82,6.75,4.51,10.22-7.35,6-12,12.94-13.54,17.51-2.93,8.43-.64,12.25,3.67,13.14,1.93.4,4.71-.49,6.79-1.39a30.42,30.42,0,0,0,8.58-4.42c5-3.66,9.72-8.77,9.48-15.67a30.41,30.41,0,0,0-2.13-9.27c6.24-2.58,14.33-4.06,24.6-2.82,22.07,2.58,26.44,16.36,25.59,22.12s-5.45,8.93-7,9.92-2,1.29-1.88,2c.2,1.05.89,1,2.23.79,1.84-.29,11.61-4.71,12-15.32.59-13.63-12.36-28.51-35.31-28.36ZM48.36,166.68c-7.29,8-17.56,11-21.92,8.43-4.71-2.74-2.87-14.49,6.1-23a117.23,117.23,0,0,1,17.21-12.85c1-.64,2.63-1.58,4.51-2.73.3-.19.5-.29.5-.29l1.14-.7c3.32,12.11.15,22.73-7.54,31.11Zm53.31-36.25c-2.53,6.19-7.88,22.12-11.11,21.22-2.77-.74-4.46-12.79-.55-24.7,2-6,6.2-13.14,8.68-15.91,4-4.46,8.38-6,9.47-4.12C109.45,109.3,103.26,126.56,101.67,130.43Zm44,21c-1.08.55-2.08.94-2.53.65s.45-.94.45-.94,5.51-5.91,7.69-8.64c1.24-1.58,2.73-3.42,4.32-5.5v.6c0,7.14-6.85,11.9-9.93,13.83Zm33.93-7.73c-.79-.6-.69-2.43,2-8.19a30.68,30.68,0,0,1,7.53-9.72,12.22,12.22,0,0,1,.75,4.27C189.81,139,183.46,142.33,179.59,143.72Z"/></g></g></svg>